<?xml version="1.0" encoding="UTF-8"?>
<svg width="24px" height="24px" viewBox="0 0 24 24" version="1.1" xmlns="http://www.w3.org/2000/svg" xmlns:xlink="http://www.w3.org/1999/xlink">
    <title>bag-24</title>
    <g id="bag-24" stroke="none" fill="none" stroke-linecap="round" stroke-linejoin="round" stroke-width="1.5">
        <path d="M11,9 L13,9 C15.8284271,9 17.2426407,9 18.1213203,9.87867966 C18.2139135,9.97127277 18.3003449,10.0698289 18.38006,10.1737157 C19,10.9816372 19,12.1544248 19,14.5 C19,16.8455752 19,18.0183628 18.38006,18.8262843 C18.3003449,18.9301711 18.2139135,19.0287272 18.1213203,19.1213203 C17.2426407,20 15.8284271,20 13,20 L11,20 C8.17157288,20 6.75735931,20 5.87867966,19.1213203 C5.78608654,19.0287272 5.69965512,18.9301711 5.61993998,18.8262843 C5,18.0183628 5,16.8455752 5,14.5 C5,12.1544248 5,10.9816372 5.61993998,10.1737157 C5.69965512,10.0698289 5.78608654,9.97127277 5.87867966,9.87867966 C6.75735931,9 8.17157288,9 11,9 Z" id="Rectangle" stroke="#000000"></path>
        <path d="M8,12 L8,10.4 C8,8.15978998 8,7.03968496 8.4359739,6.184038 C9.11884624,4.84382558 10.4958444,4 12,4 C13.5041556,4 14.8811538,4.84382558 15.5640261,6.184038 C16,7.03968496 16,9.75978998 16,12" id="Path" stroke="#000000"></path>
    </g>
</svg>