<?xml version="1.0" encoding="UTF-8"?>
<svg width="24px" height="24px" viewBox="0 0 24 24" version="1.1" xmlns="http://www.w3.org/2000/svg" xmlns:xlink="http://www.w3.org/1999/xlink">
    <title>sideBar-right</title>
    <g id="sideBar-right" stroke="none" fill="none" stroke-linecap="round" stroke-linejoin="round" stroke-width="1.5">
        <path d="M11,5 L13,5 C15.8284271,5 17.2426407,5 18.1213203,5.87867966 C18.1213203,5.87867966 18.1213203,5.87867966 18.1213203,5.87867966 C19,6.75735931 19,8.17157288 19,11 L19,13 C19,15.8284271 19,17.2426407 18.1213203,18.1213203 C18.1213203,18.1213203 18.1213203,18.1213203 18.1213203,18.1213203 C17.2426407,19 15.8284271,19 13,19 L11,19 C8.17157288,19 6.75735931,19 5.87867966,18.1213203 C5.87867966,18.1213203 5.87867966,18.1213203 5.87867966,18.1213203 C5,17.2426407 5,15.8284271 5,13 L5,11 C5,8.17157288 5,6.75735931 5.87867966,5.87867966 C5.87867966,5.87867966 5.87867966,5.87867966 5.87867966,5.87867966 C6.75735931,5 8.17157288,5 11,5 Z" id="Rectangle" stroke="#000000"></path>
        <line x1="14" y1="5" x2="14" y2="18.5" id="Path-28" stroke="#000000"></line>
    </g>
</svg>